# xmcd
#
# Track frame offsets: 
#        150
#        16392
#        26417
#
# Disc length: 528 seconds
#
# Revision: 0
# Processed by: cddbd v1.5.2PL0 Copyright (c) Steve Scherf et al.
# Submitted via: ExactAudioCopy v0.95b4
#
DISCID=17020e03
DTITLE=Dwight Yoakam - Suspicious Minds
DYEAR=1900
DGENRE=Country
TTITLE0=Suspicious Minds
TTITLE1=Hound Dog
TTITLE2=If There Was A Way
EXTD=
EXTT0=
EXTT1=
EXTT2=
PLAYORDER=
